<?xml version="1.0" encoding="utf-8"?>
<!-- Generator: Adobe Illustrator 16.0.4, SVG Export Plug-In . SVG Version: 6.00 Build 0)  -->
<!DOCTYPE svg PUBLIC "-//W3C//DTD SVG 1.1//EN" "http://www.w3.org/Graphics/SVG/1.1/DTD/svg11.dtd">
<svg version="1.1" id="Layer_1" xmlns="http://www.w3.org/2000/svg" xmlns:xlink="http://www.w3.org/1999/xlink" x="0px" y="0px" xml:space="preserve">
<g id="LogoIcon"><path d="M188.841,50.339c0.588,0,1.176-0.035,1.767-0.107c1.901-0.229,3.267-1.978,3.036-3.91
		c-0.222-1.93-1.921-3.338-3.854-3.081c-1.614,0.193-3.229-0.113-4.678-0.887c-1.897-1.015-3.295-2.718-3.929-4.796
		c-0.639-2.076-0.436-4.281,0.565-6.206c0.895-1.72,0.239-3.849-1.455-4.756c-1.691-0.907-3.796-0.245-4.688,1.474
		c-1.863,3.59-2.238,7.702-1.056,11.577c1.188,3.875,3.785,7.048,7.325,8.938C184.044,49.742,186.426,50.339,188.841,50.339"></path><path d="M162.946,17.076c0.619,0,1.232-0.281,1.637-0.814c10.278-13.533,29.506-16.083,42.866-5.69
		c0.904,0.703,2.199,0.529,2.891-0.388c0.693-0.915,0.521-2.229-0.385-2.93c-15.149-11.795-36.973-8.899-48.64,6.454
		c-0.693,0.915-0.523,2.226,0.375,2.933C162.069,16.934,162.508,17.076,162.946,17.076"></path><path d="M214.683,57.848c0.748,0,1.483-0.341,1.971-0.985c6.423-8.509,8.723-19.378,6.317-29.823
		c-0.313-1.354-1.652-2.184-2.979-1.879c-1.334,0.316-2.16,1.671-1.851,3.022c2.067,8.975,0.09,18.313-5.428,25.623
		c-0.832,1.102-0.624,2.679,0.466,3.523C213.629,57.679,214.158,57.848,214.683,57.848"></path><path d="M202.74,70.375c0.741,0,1.497-0.162,2.214-0.504c5.402-2.574,10.193-6.48,13.862-11.301
		c1.764-2.314,1.343-5.641-0.94-7.428c-2.285-1.788-5.56-1.357-7.319,0.955c-2.698,3.543-6.076,6.3-10.039,8.188
		c-2.609,1.244-3.73,4.396-2.505,7.041C198.9,69.25,200.778,70.375,202.74,70.375"></path><path d="M157.808,47.897c0.251,0,0.507-0.041,0.761-0.125c1.304-0.425,2.019-1.844,1.596-3.166
		c-3.054-9.597-1.277-20.1,4.755-28.094c0.833-1.103,0.624-2.68-0.464-3.525c-1.087-0.843-2.642-0.634-3.476,0.469
		c-7.021,9.306-9.087,21.529-5.53,32.698C155.789,47.22,156.76,47.897,157.808,47.897"></path><path d="M167.626,37.016c1.789,0,3.309-1.395,3.454-3.236c0.438-5.425,3.214-10.306,7.622-13.394
		c3.905-2.74,8.625-3.775,13.302-2.902c4.67,0.866,8.729,3.526,11.428,7.491c1.092,1.603,3.256,1.997,4.828,0.896
		c1.577-1.105,1.975-3.299,0.886-4.897c-3.756-5.513-9.398-9.211-15.893-10.417c-6.504-1.203-13.066,0.229-18.497,4.034
		c-6.129,4.292-9.99,11.082-10.59,18.617c-0.153,1.938,1.269,3.637,3.175,3.794C167.438,37.012,167.534,37.016,167.626,37.016"></path><path d="M200.832,57.285c0.849,0,1.707-0.25,2.462-0.779c7.864-5.51,12.022-14.917,10.854-24.551
		c-0.293-2.412-2.441-4.117-4.836-3.83c-2.379,0.298-4.065,2.495-3.773,4.906c0.773,6.372-1.978,12.592-7.178,16.233
		c-1.972,1.382-2.463,4.121-1.104,6.121C198.1,56.621,199.454,57.285,200.832,57.285"></path><path d="M188.809,58.733c4.649,0,9.267-1.403,13.184-4.123c0.938-0.653,1.178-1.952,0.536-2.905
		c-0.646-0.953-1.923-1.199-2.865-0.545c-5.039,3.5-11.497,4.35-17.265,2.274c-1.076-0.384-2.253,0.179-2.634,1.271
		c-0.382,1.086,0.179,2.282,1.253,2.668C183.547,58.287,186.182,58.733,188.809,58.733"></path><path d="M167.881,40.591c0.104,0,0.211-0.009,0.318-0.026c1.126-0.177,1.896-1.245,1.717-2.386
		c-1.123-7.339,2.04-14.807,8.061-19.026c0.937-0.655,1.173-1.958,0.523-2.907c-0.646-0.95-1.937-1.194-2.867-0.532
		c-7.313,5.125-11.151,14.195-9.784,23.108C166.005,39.854,166.882,40.591,167.881,40.591"></path><path d="M178.673,31.799c0.737,0,1.45-0.403,1.821-1.107c1.421-2.702,3.946-4.515,6.933-4.97
		c1.128-0.174,1.897-1.238,1.729-2.38c-0.166-1.14-1.215-1.919-2.343-1.755c-4.226,0.647-7.944,3.314-9.956,7.138
		c-0.531,1.021-0.153,2.286,0.851,2.829C178.017,31.72,178.349,31.799,178.673,31.799"></path><path d="M198.954,42.699c0.738,0,1.453-0.406,1.822-1.116c3.479-6.689,0.956-15.013-5.629-18.557
		c-1.005-0.536-2.253-0.153-2.787,0.868c-0.53,1.019-0.15,2.284,0.858,2.827c4.578,2.463,6.335,8.255,3.914,12.912
		c-0.533,1.021-0.146,2.284,0.86,2.824C198.3,42.622,198.631,42.699,198.954,42.699"></path><path id="NoColourRemove" d="M188.792,48.883c0.372,0,0.745-0.015,1.116-0.048c1.137-0.095,1.979-1.105,1.883-2.254
		c-0.091-1.154-1.117-2.042-2.224-1.911c-1.781,0.143-3.566-0.221-5.156-1.071c-1.012-0.539-2.253-0.146-2.784,0.875
		c-0.529,1.021-0.143,2.286,0.86,2.824C184.447,48.342,186.605,48.883,188.792,48.883"></path></g><path d="M38.161,59.527c0-1.162,0.414-2.148,1.243-2.958c0.829-0.812,1.877-1.216,3.144-1.216v16.422
	c0,1.193-0.228,2.311-0.679,3.35c-0.453,1.039-1.063,1.949-1.832,2.729c-0.771,0.778-1.667,1.392-2.69,1.834
	c-1.025,0.444-2.124,0.666-3.301,0.666h-6.512c-1.266,0-2.433-0.258-3.503-0.778c-1.069-0.521-1.997-1.225-2.78-2.111
	c-0.784,0.888-1.711,1.592-2.78,2.111c-1.071,0.521-2.239,0.778-3.506,0.778H8.501c-1.175,0-2.283-0.222-3.322-0.666
	c-1.04-0.442-1.943-1.056-2.713-1.834c-0.771-0.778-1.373-1.688-1.81-2.729C0.218,74.083,0,72.966,0,71.774V59.527
	c0-1.162,0.414-2.148,1.243-2.958c0.828-0.812,1.877-1.216,3.143-1.216v16.375c0,1.163,0.4,2.148,1.198,2.96
	c0.797,0.81,1.771,1.214,2.917,1.214h10.58V59.527c0-1.162,0.414-2.148,1.244-2.958c0.826-0.812,1.875-1.216,3.141-1.216v16.375
	c0,1.163,0.392,2.148,1.177,2.96c0.782,0.81,1.748,1.214,2.893,1.214h10.581L38.161,59.527z"></path>
</svg>
