<?xml version="1.0" encoding="UTF-8" ?>
<!DOCTYPE svg PUBLIC "-//W3C//DTD SVG 1.1//EN" "http://www.w3.org/Graphics/SVG/1.1/DTD/svg11.dtd">
<svg width="920pt" height="120pt" viewBox="0 0 920 120" version="1.1" xmlns="http://www.w3.org/2000/svg">
<path fill="#ffffff" d=" M 0.00 0.00 L 920.00 0.00 L 920.00 120.00 L 0.00 120.00 L 0.00 0.00 Z" />
<path fill="#f55f34" d=" M 50.39 1.56 C 62.43 -0.36 75.09 1.56 85.97 7.08 C 100.07 14.03 111.16 26.90 115.85 41.91 C 121.47 59.02 118.63 78.64 108.37 93.45 C 99.62 106.26 85.72 115.42 70.44 118.18 C 49.62 122.54 26.92 113.87 13.64 97.38 C 5.21 86.95 -0.10 73.54 1.01 59.99 C -0.05 49.09 3.51 38.26 9.11 29.01 C 17.99 14.43 33.48 4.05 50.39 1.56 Z" />
<path fill="#f55f34" d=" M 238.69 28.85 C 240.40 29.16 242.56 28.64 243.80 30.18 C 254.76 40.60 265.49 51.28 276.58 61.57 C 277.00 51.02 276.55 40.45 276.83 29.90 C 281.32 29.70 285.81 29.68 290.30 29.84 C 290.78 47.21 290.34 64.60 290.53 81.98 C 290.58 85.08 290.45 88.18 290.27 91.27 C 286.13 91.98 283.74 88.29 281.16 85.80 C 271.46 76.20 262.19 66.17 252.24 56.81 C 252.17 67.92 252.43 79.03 252.10 90.13 C 247.62 90.32 243.14 90.30 238.66 90.13 C 238.41 69.71 238.35 49.27 238.69 28.85 Z" />
<path fill="#545454" d=" M 473.23 40.20 C 483.95 26.42 507.45 24.68 519.13 38.04 C 517.95 40.56 515.72 42.36 513.85 44.34 C 509.89 41.66 505.86 38.71 501.01 38.00 C 492.78 36.42 484.03 40.50 479.64 47.56 C 474.76 54.88 474.77 65.07 479.72 72.34 C 483.82 78.70 491.43 82.69 499.03 82.00 C 504.07 81.94 508.37 79.07 512.44 76.42 C 514.08 75.17 515.48 77.41 516.69 78.27 C 517.64 79.48 520.12 80.87 518.50 82.55 C 507.07 94.66 485.62 93.63 474.57 81.46 C 463.93 70.58 463.37 51.77 473.23 40.20 Z" />
<path fill="#545454" d=" M 568.52 29.72 C 577.97 27.56 588.45 29.71 595.86 36.11 C 608.37 46.16 610.67 66.21 600.77 78.83 C 591.93 91.09 573.74 94.72 560.68 87.33 C 549.27 81.28 542.87 67.52 545.19 54.88 C 546.97 42.81 556.61 32.38 568.52 29.72 Z" />
<path fill="#f55f34" d=" M 156.77 29.89 C 161.41 29.68 166.07 29.58 170.70 30.07 C 170.87 42.36 170.62 54.65 170.80 66.93 C 170.84 72.27 175.54 77.19 180.96 77.05 C 186.51 77.43 191.73 72.59 191.72 67.03 C 191.91 54.65 191.49 42.27 191.92 29.90 C 196.29 29.80 200.67 29.48 205.03 29.91 C 206.52 31.14 205.83 33.27 206.04 34.94 C 205.91 45.96 206.12 56.98 205.94 68.00 C 205.72 79.72 195.67 89.98 184.08 90.97 C 174.12 92.29 163.70 86.88 159.19 77.89 C 155.77 71.46 156.59 63.95 156.50 56.94 C 156.64 47.92 156.19 38.89 156.77 29.89 Z" />
<path fill="#545454" d=" M 325.14 29.89 C 333.11 29.59 341.09 29.82 349.07 29.73 C 353.74 29.57 358.48 30.89 362.13 33.88 C 368.15 38.49 370.59 47.04 368.08 54.17 C 366.30 59.68 361.51 63.28 356.72 66.05 C 358.59 70.43 361.17 74.46 363.32 78.70 C 365.17 82.44 367.93 85.87 368.39 90.15 C 365.14 90.00 361.46 90.96 358.47 89.68 C 354.39 82.17 350.78 74.40 346.91 66.77 C 342.61 66.74 338.30 66.74 334.00 66.76 C 333.95 74.55 334.11 82.33 333.90 90.11 C 330.98 90.27 328.05 90.26 325.13 90.11 C 324.92 70.04 324.90 49.96 325.14 29.89 Z" />
<path fill="#545454" d=" M 401.30 30.02 C 413.82 29.49 426.38 29.74 438.91 29.88 C 438.98 32.55 438.98 35.21 438.89 37.87 C 429.33 38.18 419.77 37.87 410.21 38.05 C 410.27 43.84 410.28 49.64 410.20 55.43 C 418.01 55.68 425.84 55.26 433.64 55.62 C 435.31 55.81 434.84 57.72 435.04 58.91 C 434.82 60.47 435.69 62.96 433.74 63.63 C 425.91 63.98 418.06 63.57 410.22 63.82 C 410.26 69.86 410.28 75.90 410.21 81.95 C 419.71 82.24 429.24 81.62 438.72 82.25 C 439.14 84.85 439.02 87.50 438.92 90.12 C 426.38 90.26 413.83 90.49 401.31 90.00 C 401.21 70.00 401.22 50.01 401.30 30.02 Z" />
<path fill="#545454" d=" M 638.16 29.88 C 646.44 29.62 654.72 29.79 663.01 29.74 C 669.52 29.60 675.98 33.08 679.35 38.66 C 683.24 44.86 682.95 53.52 678.27 59.22 C 676.06 62.18 672.81 64.03 669.80 66.03 C 672.98 74.38 679.25 81.42 681.44 90.13 C 678.19 89.94 674.31 91.07 671.44 89.61 C 667.35 82.14 663.77 74.38 659.92 66.77 C 655.61 66.75 651.30 66.73 647.00 66.76 C 646.83 74.47 647.34 82.20 646.76 89.89 C 643.93 90.59 641.00 90.19 638.14 90.10 C 637.91 70.03 637.89 49.95 638.16 29.88 Z" />
<path fill="#545454" d=" M 714.33 29.91 C 721.54 29.60 728.77 29.79 735.99 29.75 C 745.58 29.74 754.96 34.70 760.46 42.54 C 767.38 52.04 767.82 65.64 761.65 75.63 C 756.38 84.51 746.31 90.32 735.95 90.26 C 728.73 90.15 721.50 90.52 714.29 89.99 C 714.25 69.97 714.17 49.94 714.33 29.91 Z" />
<path fill="#545454" d=" M 797.15 30.93 C 797.35 30.67 797.77 30.15 797.98 29.89 C 810.27 29.63 822.59 29.67 834.89 29.89 C 834.98 32.55 834.98 35.20 834.90 37.86 C 825.34 38.19 815.78 37.88 806.23 38.03 C 806.26 43.83 806.29 49.62 806.19 55.41 C 814.18 55.75 822.21 55.15 830.19 55.70 C 831.24 57.95 830.96 60.95 830.33 63.33 C 822.41 64.36 814.24 63.39 806.22 63.81 C 806.26 69.86 806.26 75.92 806.23 81.97 C 815.71 82.26 825.25 81.53 834.70 82.33 C 835.23 84.88 834.97 87.51 834.87 90.10 C 822.88 90.40 810.89 90.25 798.90 90.20 C 796.64 90.37 797.02 87.46 796.97 86.00 C 797.13 67.65 796.78 49.27 797.15 30.93 Z" />
<path fill="#545454" d=" M 866.87 29.88 C 874.88 29.70 882.90 29.63 890.91 29.86 C 906.08 30.80 918.98 44.74 918.54 59.98 C 918.96 75.20 906.11 89.21 890.92 90.14 C 882.91 90.37 874.89 90.29 866.89 90.13 C 866.65 70.05 866.68 49.96 866.87 29.88 Z" />
<path fill="#ffffff" d=" M 334.26 38.24 C 339.44 38.34 344.62 38.08 349.79 38.35 C 354.83 38.59 359.55 42.76 359.77 47.92 C 360.27 53.43 355.57 58.69 350.07 58.94 C 344.78 59.15 339.49 58.96 334.20 58.94 C 334.30 52.04 334.22 45.14 334.26 38.24 Z" />
<path fill="#ffffff" d=" M 569.53 38.69 C 582.33 34.36 597.03 44.61 597.95 57.95 C 599.49 70.12 589.07 81.90 576.90 82.25 C 565.42 83.01 554.44 73.48 553.76 61.96 C 552.70 51.74 559.77 41.63 569.53 38.69 Z" />
<path fill="#ffffff" d=" M 647.25 38.25 C 654.81 39.08 664.19 35.80 670.19 41.90 C 675.46 47.19 672.14 57.05 665.01 58.62 C 659.13 59.47 653.14 58.81 647.22 58.96 C 647.28 52.06 647.24 45.15 647.25 38.25 Z" />
<path fill="#ffffff" d=" M 723.26 38.25 C 727.51 38.29 731.77 38.15 736.03 38.28 C 743.02 38.58 749.86 42.51 753.28 48.69 C 757.42 55.92 757.11 65.45 752.55 72.42 C 748.84 78.31 741.88 81.77 734.99 81.75 C 731.07 81.80 727.16 81.73 723.25 81.75 C 723.26 67.25 723.24 52.75 723.26 38.25 Z" />
<path fill="#ffffff" d=" M 875.81 38.23 C 883.02 38.58 890.78 37.03 897.45 40.62 C 905.22 44.51 909.60 53.58 908.66 62.11 C 908.11 69.52 903.59 76.58 896.77 79.71 C 890.25 82.95 882.79 81.38 875.82 81.78 C 875.70 67.26 875.72 52.74 875.81 38.23 Z" />
<path fill="#ffffff" d=" M 36.05 50.04 C 38.02 50.02 40.00 50.01 41.97 50.01 C 42.24 55.56 41.51 61.18 42.37 66.67 C 43.45 70.24 48.81 70.27 50.23 66.94 C 50.87 61.37 50.34 55.75 50.47 50.16 C 52.46 50.08 54.45 50.01 56.44 49.91 C 56.38 55.93 56.86 61.99 56.24 67.99 C 54.77 74.40 46.47 77.31 41.03 73.97 C 38.21 72.35 36.29 69.33 36.15 66.07 C 35.78 60.74 36.07 55.38 36.05 50.04 Z" />
<path fill="#ffffff" d=" M 62.09 49.18 C 65.27 50.31 67.36 53.04 69.72 55.29 C 72.41 57.86 75.09 60.44 77.75 63.04 C 77.74 58.70 77.74 54.35 77.79 50.01 C 79.68 50.00 81.56 49.99 83.45 49.99 C 83.50 58.57 83.61 67.14 83.38 75.72 C 77.09 72.34 73.23 65.93 67.85 61.40 C 67.69 65.90 67.74 70.41 67.78 74.92 C 65.86 74.95 63.95 74.98 62.03 75.02 C 62.01 66.41 61.91 57.79 62.09 49.18 Z" />
</svg>
