<svg version="1" xmlns="http://www.w3.org/2000/svg" width="346.667" height="346.667" viewBox="0 0 260.000000 260.000000"><path d="M71 .6c-13.6 4.9-22.6 15-25.4 28.5C41.9 47.4 53 66.2 79.2 86c9.5 7.2 23.1 16 24.6 16 .5 0 1.5.6 2.1 1.3.8 1 .2 2.1-2.5 4.8-16.1 15.6-18.8 37.6-8.3 67.8 1.6 4.6 2.9 8.4 2.9 8.5 0 0-6.6.1-14.6 0-10.5 0-14.7.3-15.1 1.2-.9 2.4-.9 10.9 0 12.1.5.7 3.1 1.3 5.7 1.3h4.8l2.2 9.7c1.2 5.4 3 13.8 4.2 18.8 1.1 4.9 2.1 9.4 2.2 10 3.3 15.4 4 17.7 6.8 20l3 2.5H183l2.9-2.8c3.1-2.9 2.9-1.8 11.7-42.7 1.3-6.1 2.6-12 2.9-13.2.4-1.9 1.3-2.2 5.8-2.5l5.2-.3v-14l-16.5-.1c-9.1 0-16.7-.2-16.9-.5-.3-.2.9-4.9 2.7-10.4 9.2-29.6 7.1-47.7-7.5-63.5l-5.2-5.6 6.3-3.8c16.3-9.5 32-23.7 37.2-33.6 2.4-4.6 2.9-6.7 2.9-13 0-6.2-.5-8.5-2.8-13.2-9-18.4-32.9-21.7-47.4-6.6-5.2 5.4-10.4 18.8-11.8 30.3-.3 2.2-.7 5.1-1 6.5-.3 1.4-.5 7.5-.5 13.6l-.1 11.1-5.7-.9c-5-.8-17.4-.4-19.1.6-.3.2-.7-8-.7-18.2-.3-41.6-8.4-63.7-26.8-73.9C94.1.9 92.3.5 83 .3 77.2.2 71.8.3 71 .6z"/></svg>